<?xml version="1.0" encoding="UTF-8"?>
<svg width="120px" height="90px" viewBox="0 0 120 90" version="1.1" xmlns="http://www.w3.org/2000/svg" xmlns:xlink="http://www.w3.org/1999/xlink">
    <!-- Generator: Sketch 46.2 (44496) - http://www.bohemiancoding.com/sketch -->
    <title>notfound</title>
    <desc>Created with Sketch.</desc>
    <defs>
        <path d="M40.5185111,70 L51.6986353,70 L51.6986353,76.0258792 L51.6986353,76.0258792 C51.6986353,78.743256 53.9015044,80.9461252 56.6188812,80.9461252 L57.5391272,80.9461252 L57.5391272,80.9461252 C59.7482662,80.9461252 61.5391272,82.7369862 61.5391272,84.9461252 L61.5391272,86.2798055 L30,86.2798055 L30,84.9461252 L30,84.9461252 C30,82.7369862 31.790861,80.9461252 34,80.9461252 L35.2592555,80.9461252 L35.2592555,80.9461252 C38.1638622,80.9461252 40.5185111,78.5914762 40.5185111,75.6868696 L40.5185111,70 Z" id="path-1"></path>
        <path d="M6,10 L85.9254658,10 L85.9254658,10 C89.2391743,10 91.9254658,12.6862915 91.9254658,16 L91.9254658,66.1632822 L91.9254658,66.1632822 C91.9254658,69.4769907 89.2391743,72.1632822 85.9254658,72.1632822 L6,72.1632822 L6,72.1632822 C2.6862915,72.1632822 4.05812251e-16,69.4769907 0,66.1632822 L0,16 L8.8817842e-16,16 C4.82366169e-16,12.6862915 2.6862915,10 6,10 Z" id="path-2"></path>
        <path d="M6.34782609,14.8110236 L85.5776398,14.8110236 L85.5776398,14.8110236 C86.6822093,14.8110236 87.5776398,15.7064541 87.5776398,16.8110236 L87.5776398,60.6767509 L87.5776398,60.6767509 C87.5776398,61.7813204 86.6822093,62.6767509 85.5776398,62.6767509 L6.34782609,62.6767509 L6.34782609,62.6767509 C5.24325659,62.6767509 4.34782609,61.7813204 4.34782609,60.6767509 L4.34782609,16.8110236 L4.34782609,16.8110236 C4.34782609,15.7064541 5.24325659,14.8110236 6.34782609,14.8110236 Z" id="path-3"></path>
    </defs>
    <g id="Page-1" stroke="none" stroke-width="1" fill="none" fill-rule="evenodd">
        <g id="notfound">
            <g id="404-copy" transform="translate(13.000000, 2.000000)">
                <g id="Group-2">
                    <g id="Rectangle-2">
                        <use fill="#FFFFFF" fill-rule="evenodd" xlink:href="#path-1"></use>
                        <path stroke="#CFD7E6" stroke-width="2" d="M41.5185111,71 L41.5185111,75.6868696 C41.5185111,79.143761 38.7161469,81.9461252 35.2592555,81.9461252 L34,81.9461252 C32.3431458,81.9461252 31,83.2892709 31,84.9461252 L31,85.2798055 L60.5391272,85.2798055 L60.5391272,84.9461252 C60.5391272,83.2892709 59.1959814,81.9461252 57.5391272,81.9461252 L56.6188812,81.9461252 C53.3492197,81.9461252 50.6986353,79.2955408 50.6986353,76.0258792 L50.6986353,71 L41.5185111,71 Z"></path>
                    </g>
                    <g id="Rectangle">
                        <use fill="#F5F8FA" fill-rule="evenodd" xlink:href="#path-2"></use>
                        <path stroke="#CFD7E6" stroke-width="2" d="M6,11 C3.23857625,11 1,13.2385763 1,16 L1,66.1632822 C1,68.924706 3.23857625,71.1632822 6,71.1632822 L85.9254658,71.1632822 C88.6868896,71.1632822 90.9254658,68.924706 90.9254658,66.1632822 L90.9254658,16 C90.9254658,13.2385763 88.6868896,11 85.9254658,11 L6,11 Z"></path>
                    </g>
                    <g id="有趣-" transform="translate(89.000000, 0.000000)" fill="#CFD7E6">
                        <g id="有趣-copy">
                            <rect id="Rectangle-2" x="0" y="0" width="2.33333333" height="6.92307692" rx="1.16666667"></rect>
                            <rect id="Rectangle-2" transform="translate(9.333333, 5.769231) rotate(-315.000000) translate(-9.333333, -5.769231) " x="8.16666667" y="2.30769231" width="2.33333333" height="6.92307692" rx="1.16666667"></rect>
                            <rect id="Rectangle-2" transform="translate(10.500000, 13.846154) rotate(-270.000000) translate(-10.500000, -13.846154) " x="9.33333333" y="10.3846154" width="2.33333333" height="6.92307692" rx="1.16666667"></rect>
                        </g>
                    </g>
                    <g id="Rectangle-Copy">
                        <use fill="#FFFFFF" fill-rule="evenodd" xlink:href="#path-3"></use>
                        <path stroke="#CFD7E6" stroke-width="2" d="M6.34782609,15.8110236 C5.79554134,15.8110236 5.34782609,16.2587389 5.34782609,16.8110236 L5.34782609,60.6767509 C5.34782609,61.2290357 5.79554134,61.6767509 6.34782609,61.6767509 L85.5776398,61.6767509 C86.1299245,61.6767509 86.5776398,61.2290357 86.5776398,60.6767509 L86.5776398,16.8110236 C86.5776398,16.2587389 86.1299245,15.8110236 85.5776398,15.8110236 L6.34782609,15.8110236 Z"></path>
                    </g>
                    <ellipse id="Oval" fill="#EEF1F6" cx="25.557971" cy="38.7438873" rx="13.3540373" ry="13.3651057"></ellipse>
                    <g id="Group" transform="translate(46.482402, 25.590482)" stroke="#CFD7E6" stroke-width="2" stroke-linecap="round" stroke-linejoin="round">
                        <path d="M9.56788626,0.621632822 L31.5344504,0.621632822" id="Path-5-Copy"></path>
                        <path d="M0.251116071,0.621632822 L5.44749387,0.621632822" id="Path-5"></path>
                        <path d="M0.251116071,6.83796104 L31.5344504,6.83796104" id="Path-5-Copy-3"></path>
                        <path d="M0.567886258,13.0542893 L22.5344504,13.0542893" id="Path-5-Copy-5"></path>
                        <path d="M0.567886258,19.2706175 L22.5344504,19.2706175" id="Path-5-Copy-7"></path>
                        <path d="M9.88465644,25.4869457 L22.5344504,25.4869457" id="Path-5-Copy-9"></path>
                        <path d="M0.567886258,25.4869457 L5.76426405,25.4869457" id="Path-5-Copy-8"></path>
                    </g>
                    <g id="Group-3" transform="translate(25.872973, 39.201728) rotate(-315.000000) translate(-25.872973, -39.201728) translate(17.872973, 31.201728)" fill="#CFD7E6">
                        <rect id="Rectangle-3" x="0.439196759" y="6.03425618" width="14.9068323" height="3.72979693" rx="1.86489847"></rect>
                        <rect id="Rectangle-3-Copy-2" transform="translate(7.892613, 7.899155) rotate(-270.000000) translate(-7.892613, -7.899155) " x="0.439196759" y="6.03425618" width="14.9068323" height="3.72979693" rx="1.86489847"></rect>
                    </g>
                </g>
            </g>
        </g>
    </g>
</svg>